<svg width="25" height="28" viewBox="0 0 25 28" fill="none" xmlns="http://www.w3.org/2000/svg">
<path d="M5.59333 21.3889C4.86416 20.6597 4.29298 19.8171 3.87979 18.8611C3.46659 17.9051 3.25999 16.9167 3.25999 15.8958C3.25999 14.875 3.45444 13.8663 3.84333 12.8698C4.23222 11.8733 4.86416 10.9375 5.73916 10.0625C6.30629 9.49538 7.0071 9.00927 7.84159 8.60417C8.67608 8.19908 9.66451 7.87906 10.8069 7.6441C11.9492 7.40915 13.2536 7.26737 14.7201 7.21876C16.1865 7.17015 17.8271 7.22686 19.6419 7.3889C19.7716 9.10649 19.8121 10.6863 19.7635 12.1285C19.7149 13.5706 19.5812 14.871 19.3624 16.0295C19.1437 17.1881 18.8358 18.2008 18.4388 19.0677C18.0418 19.9346 17.5517 20.6597 16.9683 21.2431C16.1095 22.1019 15.1981 22.7298 14.234 23.1267C13.2698 23.5237 12.2855 23.7222 11.2808 23.7222C10.2276 23.7222 9.19865 23.5156 8.19402 23.1024C7.18939 22.6892 6.32249 22.1181 5.59333 21.3889ZM8.31555 21C8.78546 21.2755 9.26752 21.474 9.76173 21.5955C10.2559 21.717 10.7623 21.7778 11.2808 21.7778C12.0262 21.7778 12.7635 21.6279 13.4926 21.3281C14.2218 21.0284 14.9186 20.5463 15.5829 19.882C15.8746 19.5903 16.1703 19.1811 16.4701 18.6545C16.7698 18.1279 17.0291 17.4392 17.2478 16.5885C17.4666 15.7379 17.6327 14.7089 17.7461 13.5017C17.8595 12.2946 17.8757 10.8565 17.7947 9.18751C17.0007 9.1551 16.1055 9.14295 15.109 9.15105C14.1124 9.15915 13.1199 9.23612 12.1315 9.38195C11.1431 9.52778 10.2033 9.76274 9.31208 10.0868C8.42087 10.4109 7.69171 10.8565 7.12458 11.4236C6.39541 12.1528 5.8931 12.8738 5.61763 13.5868C5.34217 14.2998 5.20444 14.9884 5.20444 15.6528C5.20444 16.6088 5.38673 17.4473 5.75131 18.1684C6.1159 18.8895 6.43592 19.3958 6.71138 19.6875C7.39194 18.3912 8.29124 17.1476 9.4093 15.9566C10.5274 14.7656 11.8318 13.7894 13.3225 13.0278C12.1558 14.0486 11.139 15.2031 10.2721 16.4913C9.40525 17.7795 8.75305 19.2824 8.31555 21Z" fill="#006D36"/>
</svg>
