<svg width="25" height="28" viewBox="0 0 25 28" fill="none" xmlns="http://www.w3.org/2000/svg">
<path d="M9.57945 18.375L16.385 14L9.57945 9.62501V18.375ZM12.01 23.7222C10.6651 23.7222 9.40121 23.467 8.21834 22.9566C7.03547 22.4462 6.00653 21.7535 5.13153 20.8785C4.25653 20.0035 3.56382 18.9745 3.05341 17.7917C2.54299 16.6088 2.28778 15.3449 2.28778 14C2.28778 12.6551 2.54299 11.3912 3.05341 10.2083C3.56382 9.02547 4.25653 7.99653 5.13153 7.12153C6.00653 6.24653 7.03547 5.55383 8.21834 5.04341C9.40121 4.53299 10.6651 4.27778 12.01 4.27778C13.3549 4.27778 14.6188 4.53299 15.8017 5.04341C16.9845 5.55383 18.0135 6.24653 18.8885 7.12153C19.7635 7.99653 20.4562 9.02547 20.9666 10.2083C21.477 11.3912 21.7322 12.6551 21.7322 14C21.7322 15.3449 21.477 16.6088 20.9666 17.7917C20.4562 18.9745 19.7635 20.0035 18.8885 20.8785C18.0135 21.7535 16.9845 22.4462 15.8017 22.9566C14.6188 23.467 13.3549 23.7222 12.01 23.7222ZM12.01 21.7778C14.1813 21.7778 16.0204 21.0243 17.5274 19.5174C19.0343 18.0104 19.7878 16.1713 19.7878 14C19.7878 11.8287 19.0343 9.98959 17.5274 8.48265C16.0204 6.9757 14.1813 6.22223 12.01 6.22223C9.83871 6.22223 7.99959 6.9757 6.49264 8.48265C4.9857 9.98959 4.23223 11.8287 4.23223 14C4.23223 16.1713 4.9857 18.0104 6.49264 19.5174C7.99959 21.0243 9.83871 21.7778 12.01 21.7778Z" fill="#006D36"/>
</svg>
