<svg width="22" height="22" viewBox="0 0 22 22" fill="none" xmlns="http://www.w3.org/2000/svg">
<path d="M6.4125 17H11.5875L12.3375 14H5.6625L6.4125 17ZM6.4125 18.5C6.0625 18.5 5.75625 18.3937 5.49375 18.1812C5.23125 17.9688 5.05625 17.6937 4.96875 17.3562L4.125 14H13.875L13.0312 17.3562C12.9438 17.6937 12.7688 17.9688 12.5063 18.1812C12.2438 18.3937 11.9375 18.5 11.5875 18.5H6.4125ZM3.75 12.5H14.25V11H3.75V12.5ZM9 8C9 6.75 9.4375 5.6875 10.3125 4.8125C11.1875 3.9375 12.25 3.5 13.5 3.5C13.5 4.625 13.1438 5.6 12.4313 6.425C11.7188 7.25 10.825 7.75 9.75 7.925V9.5H15.75V12.5C15.75 12.9125 15.6031 13.2656 15.3094 13.5594C15.0156 13.8531 14.6625 14 14.25 14H3.75C3.3375 14 2.98438 13.8531 2.69063 13.5594C2.39687 13.2656 2.25 12.9125 2.25 12.5V9.5H8.25V7.925C7.175 7.75 6.28125 7.25 5.56875 6.425C4.85625 5.6 4.5 4.625 4.5 3.5C5.75 3.5 6.8125 3.9375 7.6875 4.8125C8.5625 5.6875 9 6.75 9 8Z" fill="#005E2D"/>
</svg>
